<?xml version="1.0" encoding="utf-8"?>
<!-- Generator: Adobe Illustrator 24.2.3, SVG Export Plug-In . SVG Version: 6.00 Build 0)  -->
<svg version="1.1" id="Layer_1" xmlns="http://www.w3.org/2000/svg" xmlns:xlink="http://www.w3.org/1999/xlink" x="0px" y="0px"
	 viewBox="0 0 93 90.03" style="enable-background:new 0 0 93 90.03;" xml:space="preserve">
<style type="text/css">
	.st0{fill:#8DBCBF;}
	.st1{display:none;}
	.st2{display:inline;fill:#FFFFFF;}
	.st3{display:none;fill:#FFFFFF;}
	.st4{fill:#FFFFFF;}
</style>
<path class="st0" d="M46.46,45.02L46.45,0.14l0.76-0.01c0,0,1.3,8.66,8.08,8.86c0,0,3.56,0.48,9.53-1.44c0,0,12.42-3.37,18.78,8.86
	c0,0,3.76,5.59,0.96,13.77c0,0-4.53,10.59,6.26,13.58l2.12,0.48v0.78C92.96,45.02,86.1,45.02,46.46,45.02z"/>
<path class="st0" d="M46.47,45.02l0.01-44.88l-0.76-0.01c0,0-1.3,8.66-8.08,8.86c0,0-3.56,0.48-9.53-1.44c0,0-12.42-3.37-18.78,8.86
	c0,0-3.76,5.59-0.96,13.77c0,0,4.53,10.59-6.26,13.58l-2.12,0.48v0.78C-0.02,45.02,6.83,45.02,46.47,45.02z"/>
<path class="st0" d="M46.46,44.98l-0.01,44.88l0.76,0.01c0,0,1.3-8.66,8.08-8.86c0,0,3.56-0.48,9.53,1.44c0,0,12.42,3.37,18.78-8.86
	c0,0,3.76-5.59,0.96-13.77c0,0-4.53-10.59,6.26-13.58l2.12-0.48v-0.78C92.96,44.98,86.1,44.98,46.46,44.98z"/>
<path class="st0" d="M46.47,44.98l0.01,44.88l-0.76,0.01c0,0-1.3-8.66-8.08-8.86c0,0-3.56-0.48-9.53,1.44c0,0-12.42,3.37-18.78-8.86
	c0,0-3.76-5.59-0.96-13.77c0,0,4.53-10.59-6.26-13.58l-2.12-0.48v-0.78C-0.02,44.98,6.83,44.98,46.47,44.98z"/>
<g class="st1">
	<path class="st2" d="M46.51,21.35c8.08,0,9.04,0.03,12.23,0.18c2.95,0.13,4.55,0.63,5.62,1.04c1.41,0.55,2.42,1.21,3.48,2.26
		c1.06,1.06,1.72,2.07,2.26,3.48c0.41,1.07,0.91,2.67,1.04,5.62c0.15,3.19,0.18,4.15,0.18,12.23s-0.03,9.04-0.18,12.23
		c-0.13,2.95-0.63,4.55-1.04,5.62c-0.55,1.41-1.21,2.42-2.26,3.48c-1.06,1.06-2.07,1.72-3.48,2.26c-1.07,0.41-2.67,0.91-5.62,1.04
		c-3.19,0.15-4.15,0.18-12.23,0.18s-9.04-0.03-12.23-0.18c-2.95-0.13-4.55-0.63-5.62-1.04c-1.41-0.55-2.42-1.21-3.48-2.26
		c-1.06-1.06-1.72-2.07-2.26-3.48c-0.41-1.07-0.91-2.67-1.04-5.62c-0.15-3.19-0.18-4.15-0.18-12.23s0.03-9.04,0.18-12.23
		c0.13-2.95,0.63-4.55,1.04-5.62c0.55-1.41,1.21-2.42,2.26-3.48c1.06-1.06,2.07-1.72,3.48-2.26c1.07-0.41,2.67-0.91,5.62-1.04
		C37.47,21.38,38.43,21.35,46.51,21.35 M46.51,15.9c-8.22,0-9.25,0.03-12.48,0.18c-3.22,0.15-5.42,0.66-7.35,1.41
		c-1.99,0.77-3.68,1.81-5.36,3.49c-1.68,1.68-2.72,3.37-3.49,5.36c-0.75,1.93-1.26,4.13-1.41,7.35c-0.15,3.23-0.18,4.26-0.18,12.48
		c0,8.22,0.03,9.25,0.18,12.48c0.15,3.22,0.66,5.42,1.41,7.35c0.77,1.99,1.81,3.68,3.49,5.36c1.68,1.68,3.37,2.72,5.36,3.49
		c1.93,0.75,4.13,1.26,7.35,1.41c3.23,0.15,4.26,0.18,12.48,0.18s9.25-0.03,12.48-0.18c3.22-0.15,5.42-0.66,7.35-1.41
		c1.99-0.77,3.68-1.81,5.36-3.49c1.68-1.68,2.72-3.37,3.49-5.36c0.75-1.93,1.26-4.13,1.41-7.35c0.15-3.23,0.18-4.26,0.18-12.48
		s-0.03-9.25-0.18-12.48c-0.15-3.22-0.66-5.42-1.41-7.35c-0.77-1.99-1.81-3.68-3.49-5.36c-1.68-1.68-3.37-2.72-5.36-3.49
		c-1.93-0.75-4.13-1.26-7.35-1.41C55.77,15.93,54.74,15.9,46.51,15.9L46.51,15.9z"/>
	<path class="st2" d="M46.51,30.62c-8.59,0-15.55,6.96-15.55,15.55s6.96,15.55,15.55,15.55s15.55-6.96,15.55-15.55
		S55.1,30.62,46.51,30.62z M46.51,56.26c-5.57,0-10.09-4.52-10.09-10.09s4.52-10.09,10.09-10.09c5.57,0,10.09,4.52,10.09,10.09
		S52.09,56.26,46.51,56.26z"/>
	<circle class="st2" cx="62.67" cy="30.01" r="3.63"/>
</g>
<path class="st3" d="M39.2,76.74V48.19h-7.55V37.91h7.55c0,0,0-4.21,0-8.78c0-6.9,4.46-13.24,14.74-13.24c4.16,0,7.24,0.4,7.24,0.4
	l-0.24,9.6c0,0-3.14-0.03-6.56-0.03c-3.71,0-4.3,1.71-4.3,4.54c0,2.24,0-4.78,0,7.51h11.16l-0.49,10.28H50.07v28.55H39.2z"/>
<path class="st4" d="M78.31,26.46c-2.29,1.02-4.75,1.7-7.33,2.01c2.64-1.58,4.66-4.08,5.61-7.06c-2.47,1.46-5.2,2.53-8.11,3.1
	c-2.33-2.48-5.65-4.03-9.32-4.03c-7.05,0-12.77,5.72-12.77,12.76c0,1,0.11,1.97,0.33,2.91c-10.61-0.53-20.02-5.61-26.31-13.34
	c-1.1,1.89-1.73,4.08-1.73,6.42c0,4.43,2.25,8.34,5.68,10.63c-2.09-0.07-4.06-0.64-5.78-1.6c0,0.05,0,0.11,0,0.16
	c0,6.18,4.4,11.34,10.24,12.52c-1.07,0.29-2.2,0.45-3.36,0.45c-0.82,0-1.62-0.08-2.4-0.23c1.62,5.07,6.34,8.76,11.92,8.86
	c-4.37,3.42-9.87,5.46-15.85,5.46c-1.03,0-2.05-0.06-3.05-0.18c5.65,3.62,12.36,5.74,19.57,5.74c23.48,0,36.32-19.45,36.32-36.32
	c0-0.55-0.01-1.1-0.04-1.65C74.44,31.27,76.6,29.02,78.31,26.46z"/>
</svg>
