<svg
        xmlns="http://www.w3.org/2000/svg"
        xmlns:xlink="http://www.w3.org/1999/xlink"
        width="61px" height="66px">
  <path fill-rule="evenodd"  stroke="rgb(200, 200, 200)" stroke-width="2px" stroke-linecap="butt" stroke-linejoin="miter" fill="rgb(56, 55, 56)"
        d="M7.672,52.188 L53.297,52.188 C56.447,52.188 59.000,54.741 59.000,57.891 L59.000,57.891 C59.000,61.040 56.447,63.594 53.297,63.594 L7.672,63.594 C4.522,63.594 1.969,61.040 1.969,57.891 L1.969,57.891 C1.969,54.741 4.522,52.188 7.672,52.188 Z"/>
  <path fill-rule="evenodd"  stroke="rgb(200, 200, 200)" stroke-width="2px" stroke-linecap="butt" stroke-linejoin="miter" fill="rgb(56, 55, 56)"
        d="M7.672,36.750 L53.297,36.750 C56.447,36.750 59.000,39.303 59.000,42.453 L59.000,42.453 C59.000,45.603 56.447,48.156 53.297,48.156 L7.672,48.156 C4.522,48.156 1.969,45.603 1.969,42.453 L1.969,42.453 C1.969,39.303 4.522,36.750 7.672,36.750 Z"/>
  <path fill-rule="evenodd"  stroke="rgb(200, 200, 200)" stroke-width="2px" stroke-linecap="butt" stroke-linejoin="miter" fill="rgb(56, 55, 56)"
        d="M7.672,22.000 L53.297,22.000 C56.447,22.000 59.000,24.553 59.000,27.703 L59.000,27.703 C59.000,30.853 56.447,33.406 53.297,33.406 L7.672,33.406 C4.522,33.406 1.969,30.853 1.969,27.703 L1.969,27.703 C1.969,24.553 4.522,22.000 7.672,22.000 Z"/>
  <path fill-rule="evenodd"  fill="rgb(255, 255, 255)"
        d="M56.982,2.771 C56.725,2.666 56.451,2.613 56.158,2.613 C55.835,2.613 55.587,2.717 55.414,2.925 C55.241,3.134 55.154,3.417 55.154,3.776 C55.154,4.130 55.258,4.439 55.465,4.702 C55.673,4.965 56.036,5.264 56.553,5.599 C57.251,6.059 57.738,6.528 58.014,7.006 C58.290,7.485 58.428,8.030 58.428,8.643 C58.428,9.624 58.175,10.375 57.670,10.896 C57.165,11.418 56.436,11.679 55.484,11.679 C54.551,11.679 53.758,11.499 53.103,11.140 L53.103,9.210 C53.904,9.722 54.639,9.978 55.308,9.978 C55.689,9.978 55.976,9.875 56.169,9.669 C56.361,9.463 56.458,9.183 56.458,8.829 C56.458,8.480 56.343,8.160 56.114,7.871 C55.884,7.581 55.506,7.260 54.978,6.906 C54.519,6.595 54.172,6.297 53.935,6.012 C53.698,5.727 53.515,5.408 53.385,5.054 C53.256,4.700 53.191,4.288 53.191,3.819 C53.191,2.920 53.446,2.207 53.957,1.680 C54.467,1.154 55.152,0.891 56.011,0.891 C56.831,0.891 57.620,1.116 58.377,1.565 L57.718,3.130 C57.483,2.996 57.238,2.876 56.982,2.771 ZM49.845,11.535 L48.153,7.451 L47.442,7.451 L47.442,11.535 L45.450,11.535 L45.450,1.041 L48.058,1.041 C49.161,1.041 49.975,1.297 50.500,1.809 C51.025,2.321 51.288,3.104 51.288,4.156 C51.288,5.482 50.831,6.408 49.918,6.934 L51.976,11.535 L49.845,11.535 ZM48.948,3.069 C48.730,2.842 48.395,2.728 47.940,2.728 L47.442,2.728 L47.442,5.771 L47.955,5.771 C48.424,5.771 48.761,5.641 48.966,5.380 C49.171,5.119 49.273,4.731 49.273,4.214 C49.273,3.678 49.165,3.296 48.948,3.069 ZM39.445,11.679 C38.205,11.679 37.252,11.213 36.588,10.283 C35.924,9.352 35.592,8.011 35.592,6.260 C35.592,4.523 35.924,3.191 36.588,2.265 C37.252,1.339 38.210,0.876 39.460,0.876 C40.695,0.876 41.642,1.342 42.301,2.272 C42.961,3.203 43.290,4.537 43.290,6.274 C43.290,8.011 42.958,9.346 42.294,10.279 C41.630,11.212 40.680,11.679 39.445,11.679 ZM39.460,2.599 C38.854,2.599 38.398,2.911 38.090,3.536 C37.782,4.160 37.629,5.073 37.629,6.274 C37.629,7.470 37.782,8.382 38.090,9.009 C38.398,9.636 38.849,9.949 39.445,9.949 C40.646,9.949 41.247,8.724 41.247,6.274 C41.247,3.824 40.651,2.599 39.460,2.599 ZM29.572,11.535 L26.950,11.535 L26.950,1.041 L29.814,1.041 C31.059,1.041 32.028,1.492 32.722,2.394 C33.415,3.296 33.762,4.561 33.762,6.188 C33.762,7.920 33.402,9.244 32.682,10.161 C31.961,11.077 30.925,11.535 29.572,11.535 ZM29.741,2.728 L28.943,2.728 L28.943,9.827 L29.587,9.827 C30.315,9.827 30.852,9.529 31.198,8.933 C31.545,8.337 31.718,7.441 31.718,6.245 C31.718,3.901 31.059,2.728 29.741,2.728 ZM18.719,3.934 L18.623,3.934 C18.745,4.513 18.806,5.135 18.806,5.800 L18.806,11.535 L16.961,11.535 L16.961,1.041 L19.407,1.041 L22.688,8.564 L22.769,8.564 C22.676,8.061 22.630,7.463 22.630,6.769 L22.630,1.041 L24.461,1.041 L24.461,11.535 L22.029,11.535 L18.719,3.934 ZM9.974,1.041 L14.801,1.041 L14.801,2.728 L11.966,2.728 L11.966,5.226 L14.596,5.226 L14.596,6.920 L11.966,6.920 L11.966,9.827 L14.801,9.827 L14.801,11.535 L9.974,11.535 L9.974,1.041 ZM3.375,11.535 L0.871,1.041 L2.877,1.041 L4.276,7.451 C4.403,7.997 4.528,8.779 4.650,9.798 C4.752,8.932 4.882,8.150 5.038,7.451 L6.422,1.041 L8.429,1.041 L5.910,11.535 L3.375,11.535 Z"/>
</svg>